<svg width="32" height="32" viewBox="0 0 32 32" fill="none" xmlns="http://www.w3.org/2000/svg">
<g filter="url(#filter0_d_246_553)">
<path d="M11.932 14.8133C11.932 12.04 13.108 9.58667 14.92 8H6.4L8.2 2H21.4L22.864 6.88C23.872 7.37333 24.76 8.09333 25.492 8.98667L23.104 1.33333C22.864 0.56 22.192 0 21.4 0H8.2C7.408 0 6.736 0.56 6.496 1.33333L4 9.33333V20C4 20.7333 4.54 21.3333 5.2 21.3333H6.4C7.06 21.3333 7.6 20.7333 7.6 20V18.6667H12.748C12.232 17.5067 11.932 16.2 11.932 14.8133ZM8.2 14.6667C7.204 14.6667 6.4 13.7733 6.4 12.6667C6.4 11.56 7.204 10.6667 8.2 10.6667C9.196 10.6667 10 11.56 10 12.6667C10 13.7733 9.196 14.6667 8.2 14.6667ZM19.732 8.81333C22.732 8.81333 25.132 11.48 25.132 14.8133C25.132 16 24.832 17.0933 24.304 18L28 22.1467L26.332 24L22.6 19.9067C21.76 20.48 20.8 20.8133 19.732 20.8133C16.732 20.8133 14.332 18.1467 14.332 14.8133C14.332 11.48 16.732 8.81333 19.732 8.81333ZM19.732 11.48C19.1387 11.48 18.5586 11.6755 18.0653 12.0418C17.5719 12.408 17.1874 12.9286 16.9604 13.5377C16.7333 14.1468 16.6739 14.817 16.7896 15.4636C16.9054 16.1102 17.1911 16.7042 17.6107 17.1704C18.0302 17.6365 18.5648 17.954 19.1467 18.0826C19.7287 18.2112 20.3319 18.1452 20.8801 17.8929C21.4282 17.6406 21.8968 17.2134 22.2264 16.6652C22.5561 16.1171 22.732 15.4726 22.732 14.8133C22.732 12.96 21.4 11.48 19.732 11.48Z" fill="white"/>
</g>
<defs>
<filter id="filter0_d_246_553" x="0" y="0" width="32" height="32" filterUnits="userSpaceOnUse" color-interpolation-filters="sRGB">
<feFlood flood-opacity="0" result="BackgroundImageFix"/>
<feColorMatrix in="SourceAlpha" type="matrix" values="0 0 0 0 0 0 0 0 0 0 0 0 0 0 0 0 0 0 127 0" result="hardAlpha"/>
<feOffset dy="4"/>
<feGaussianBlur stdDeviation="2"/>
<feComposite in2="hardAlpha" operator="out"/>
<feColorMatrix type="matrix" values="0 0 0 0 0 0 0 0 0 0 0 0 0 0 0 0 0 0 0.25 0"/>
<feBlend mode="normal" in2="BackgroundImageFix" result="effect1_dropShadow_246_553"/>
<feBlend mode="normal" in="SourceGraphic" in2="effect1_dropShadow_246_553" result="shape"/>
</filter>
</defs>
</svg>
