<svg width="32" height="32" viewBox="0 0 32 32" fill="none" xmlns="http://www.w3.org/2000/svg">
<g filter="url(#filter0_d_53_346)">
<path d="M16 0C12.8174 0 9.76515 1.26428 7.51472 3.51472C5.26428 5.76515 4 8.8174 4 12C4 15.1826 5.26428 18.2348 7.51472 20.4853C9.76515 22.7357 12.8174 24 16 24C17.5759 24 19.1363 23.6896 20.5922 23.0866C22.0481 22.4835 23.371 21.5996 24.4853 20.4853C25.5996 19.371 26.4835 18.0481 27.0866 16.5922C27.6896 15.1363 28 13.5759 28 12C28 10.4241 27.6896 8.86371 27.0866 7.4078C26.4835 5.95189 25.5996 4.62902 24.4853 3.51472C23.371 2.40042 22.0481 1.5165 20.5922 0.913446C19.1363 0.310389 17.5759 0 16 0ZM16 4.18723C20.3094 4.18723 23.8128 7.69057 23.8128 12C23.8128 16.3094 20.3094 19.8128 16 19.8128C11.6906 19.8128 8.18723 16.3094 8.18723 12C8.18723 7.69057 11.6906 4.18723 16 4.18723ZM16 5.10638C14.9574 5.10638 13.9699 5.33719 13.0848 5.74989C13.6744 7.42887 14.6835 9.54894 16 9.54894C17.3186 9.54894 18.2941 7.42213 18.898 5.74187C18.0173 5.33423 17.0358 5.10638 16 5.10638ZM21.0427 7.296C19.6275 8.37564 17.9205 9.99166 18.3276 11.2446C18.7351 12.4989 21.0599 12.7693 22.8446 12.8243C22.8767 12.554 22.8936 12.2791 22.8936 12C22.8936 10.18 22.1912 8.52705 21.0427 7.296ZM10.9459 7.30841C9.80407 8.53808 9.10638 10.1861 9.10638 12C9.10638 12.2834 9.12374 12.5626 9.15683 12.8369C10.9355 12.7948 13.2614 12.4901 13.668 11.2386C14.0752 9.98543 12.3567 8.40189 10.9459 7.30841ZM14.5299 9.53699C14.4374 9.53959 14.3477 9.5701 14.2728 9.62451C14.1742 9.69616 14.1081 9.80403 14.0891 9.9244C14.07 10.0448 14.0996 10.1678 14.1712 10.2664C14.2428 10.365 14.3507 10.4311 14.4711 10.4502C14.5914 10.4693 14.7145 10.4398 14.8131 10.3682C14.8619 10.3327 14.9033 10.2879 14.9348 10.2365C14.9664 10.185 14.9875 10.1278 14.9969 10.0682C15.0063 10.0086 15.004 9.94773 14.9899 9.88904C14.9758 9.83035 14.9503 9.77501 14.9148 9.72618C14.8709 9.66573 14.8128 9.61691 14.7458 9.58394C14.6787 9.55097 14.6046 9.53485 14.5299 9.53699ZM17.4701 9.53699C17.4592 9.53667 17.4484 9.53674 17.4375 9.53719C17.3684 9.54011 17.3008 9.55862 17.2398 9.59134C17.1787 9.62405 17.1259 9.67013 17.0852 9.72613C17.0497 9.77496 17.0242 9.8303 17.0101 9.889C16.996 9.94769 16.9936 10.0086 17.0031 10.0682C17.0125 10.1278 17.0336 10.185 17.0652 10.2365C17.0967 10.2879 17.1381 10.3327 17.1869 10.3682C17.2855 10.4398 17.4086 10.4693 17.5289 10.4502C17.6493 10.4311 17.7572 10.365 17.8288 10.2664C17.9004 10.1678 17.93 10.0448 17.9109 9.92446C17.8919 9.80408 17.8258 9.69621 17.7272 9.62456C17.6523 9.57013 17.5626 9.53961 17.4701 9.53699ZM16 10.366C15.5666 10.366 15.151 10.5381 14.8446 10.8446C14.5381 11.151 14.366 11.5666 14.366 12C14.366 12.4334 14.5381 12.849 14.8446 13.1554C15.151 13.4619 15.5666 13.634 16 13.634C16.4334 13.634 16.849 13.4619 17.1554 13.1554C17.4619 12.849 17.634 12.4334 17.634 12C17.634 11.5666 17.4619 11.151 17.1554 10.8446C16.849 10.5381 16.4334 10.366 16 10.366ZM13.6359 12.3083C13.5899 12.3089 13.5442 12.3165 13.5005 12.3307C13.4431 12.3494 13.3899 12.3791 13.344 12.4183C13.2981 12.4575 13.2604 12.5054 13.2329 12.5592C13.2055 12.6129 13.189 12.6716 13.1843 12.7318C13.1795 12.7919 13.1867 12.8524 13.2053 12.9099C13.243 13.0258 13.3252 13.122 13.4338 13.1773C13.5424 13.2326 13.6685 13.2426 13.7844 13.2049C13.8418 13.1863 13.895 13.1565 13.9409 13.1173C13.9868 13.0781 14.0245 13.0303 14.0519 12.9765C14.0793 12.9227 14.0958 12.8641 14.1006 12.8039C14.1053 12.7438 14.0982 12.6832 14.0795 12.6258C14.0492 12.5325 13.9898 12.4512 13.9099 12.3941C13.8301 12.337 13.7341 12.3069 13.6359 12.3083ZM18.3775 12.3087C18.2771 12.3043 18.1781 12.333 18.0955 12.3902C18.013 12.4475 17.9515 12.5302 17.9205 12.6258C17.9018 12.6832 17.8947 12.7437 17.8994 12.8039C17.9041 12.864 17.9207 12.9227 17.9481 12.9764C17.9755 13.0302 18.0132 13.0781 18.0591 13.1173C18.105 13.1564 18.1582 13.1862 18.2156 13.2049C18.3315 13.2425 18.4576 13.2326 18.5662 13.1773C18.6748 13.1219 18.757 13.0258 18.7947 12.9099C18.8133 12.8524 18.8205 12.7919 18.8157 12.7318C18.811 12.6716 18.7945 12.6129 18.7671 12.5592C18.7396 12.5054 18.7019 12.4575 18.656 12.4183C18.6101 12.3791 18.5569 12.3494 18.4995 12.3307C18.46 12.3179 18.419 12.3105 18.3775 12.3087ZM13.6723 13.7238C12.5698 13.7291 11.1069 14.5833 9.97406 15.3542C10.9458 17.0989 12.6529 18.3753 14.6792 18.7671C15.1894 17.0621 15.6198 14.7526 14.5543 13.9785C14.3065 13.7984 14.0061 13.7222 13.6723 13.7238ZM18.3199 13.7248C17.9839 13.7248 17.682 13.8022 17.4342 13.9823C16.3672 14.7575 16.8284 17.0515 17.3276 18.7659C19.3541 18.3719 21.0607 17.093 22.0305 15.346C20.9068 14.5686 19.4296 13.7248 18.3199 13.7248V13.7248ZM16 14.0211C15.8781 14.0211 15.7612 14.0695 15.675 14.1557C15.5888 14.2419 15.5404 14.3588 15.5404 14.4807C15.5404 14.6026 15.5888 14.7195 15.675 14.8056C15.7612 14.8918 15.8781 14.9403 16 14.9403C16.1219 14.9403 16.2388 14.8918 16.325 14.8056C16.4112 14.7195 16.4596 14.6026 16.4596 14.4807C16.4596 14.3588 16.4112 14.2419 16.325 14.1557C16.2388 14.0695 16.1219 14.0211 16 14.0211Z" fill="white"/>
</g>
<defs>
<filter id="filter0_d_53_346" x="0" y="0" width="32" height="32" filterUnits="userSpaceOnUse" color-interpolation-filters="sRGB">
<feFlood flood-opacity="0" result="BackgroundImageFix"/>
<feColorMatrix in="SourceAlpha" type="matrix" values="0 0 0 0 0 0 0 0 0 0 0 0 0 0 0 0 0 0 127 0" result="hardAlpha"/>
<feOffset dy="4"/>
<feGaussianBlur stdDeviation="2"/>
<feComposite in2="hardAlpha" operator="out"/>
<feColorMatrix type="matrix" values="0 0 0 0 0 0 0 0 0 0 0 0 0 0 0 0 0 0 0.25 0"/>
<feBlend mode="normal" in2="BackgroundImageFix" result="effect1_dropShadow_53_346"/>
<feBlend mode="normal" in="SourceGraphic" in2="effect1_dropShadow_53_346" result="shape"/>
</filter>
</defs>
</svg>
