<svg width="32" height="32" viewBox="0 0 32 32" fill="none" xmlns="http://www.w3.org/2000/svg">
<g filter="url(#filter0_d_30_374)">
<path fill-rule="evenodd" clip-rule="evenodd" d="M28 6.00092C28.0001 6.79818 27.8413 7.58747 27.5329 8.32266C27.2244 9.05785 26.7725 9.72419 26.2035 10.2827C25.6346 10.8413 24.9599 11.2808 24.2191 11.5756C23.4783 11.8705 25.0163 11.5904 24.2191 11.5756C22.5221 11.5431 18.3011 12.2262 17.2606 13.5648L10.181 22.6661C9.88034 23.0528 9.50083 23.3711 9.0677 23.6C8.63456 23.8288 8.1577 23.9629 7.66877 23.9933C7.17983 24.0238 6.69002 23.9499 6.23184 23.7765C5.77365 23.6032 5.35758 23.3344 5.01125 22.988C4.66491 22.6416 4.39623 22.2255 4.22305 21.7673C4.04986 21.3091 3.97613 20.8193 4.00675 20.3304C4.03737 19.8416 4.17164 19.3648 4.40065 18.9318C4.62965 18.4988 4.94815 18.1194 5.33501 17.8189L14.4356 10.7401C15.7727 9.69973 16.0333 7.80919 16.0024 6.11233L16.0007 6.00092C16.0004 5.0699 16.2168 4.15158 16.6328 3.31865C17.0489 2.48573 17.6531 1.76105 18.3976 1.20198C19.1422 0.642918 20.0067 0.264805 20.9227 0.097571C21.8386 -0.0696626 22.781 -0.0214262 23.6751 0.238463C24.2322 0.399578 24.3436 1.09032 23.9322 1.49996L20.4576 4.97595C20.3085 5.12084 20.2197 5.31681 20.2092 5.52445C20.1987 5.73209 20.2673 5.93601 20.401 6.09519C20.8661 6.63453 21.3684 7.13673 21.9078 7.60179C22.067 7.73553 22.2709 7.80404 22.4786 7.79354C22.6862 7.78305 22.8822 7.69433 23.0271 7.54523L26.5018 4.07096C26.9115 3.6596 27.6023 3.77101 27.7634 4.32806C27.9189 4.86054 27.9977 5.41816 28 6.00092ZM8.71538 20.5699C8.71538 20.9108 8.57993 21.2378 8.33883 21.4789C8.09772 21.72 7.77072 21.8554 7.42974 21.8554C7.08877 21.8554 6.76176 21.72 6.52066 21.4789C6.27955 21.2378 6.1441 20.9108 6.1441 20.5699C6.1441 20.229 6.27955 19.902 6.52066 19.6609C6.76176 19.4198 7.08877 19.2844 7.42974 19.2844C7.77072 19.2844 8.09772 19.4198 8.33883 19.6609C8.57993 19.902 8.71538 20.229 8.71538 20.5699Z" fill="white"/>
<path d="M21.9757 14.536C22.515 14.536 23.041 14.4878 23.5539 14.3914L26.9307 17.7679C27.6153 18.4525 28 19.3811 28 20.3493C28 21.3175 27.6153 22.2461 26.9307 22.9307C26.246 23.6154 25.3173 24 24.3491 24C23.3808 24 22.4521 23.6154 21.7674 22.9307L16.9312 18.0949L19.2547 15.1107C19.3407 15.0006 19.5266 14.8388 19.9879 14.7098C20.4663 14.5755 21.0876 14.5205 21.8156 14.5342L21.9757 14.536ZM10.7887 5.07074L13.2774 7.55751C13.2569 7.67934 13.2299 7.79998 13.1965 7.91891C13.0674 8.38012 12.9056 8.5677 12.7955 8.65375L11.7456 9.46948L9.06766 6.79168H6.75454C6.67437 6.79168 6.5958 6.76929 6.52768 6.72702C6.45956 6.68475 6.40461 6.6243 6.36902 6.55247L4.04557 1.90591C4.00505 1.82503 3.99106 1.73344 4.00558 1.64415C4.0201 1.55487 4.0624 1.47243 4.12646 1.40856L5.40866 0.12645C5.47254 0.062394 5.55498 0.0201002 5.64427 0.00557955C5.73356 -0.00894106 5.82516 0.00505049 5.90605 0.0455655L10.5529 2.36885C10.6241 2.40492 10.6839 2.46007 10.7255 2.52815C10.7672 2.59622 10.789 2.67454 10.7887 2.75434V5.07074Z" fill="white"/>
</g>
<defs>
<filter id="filter0_d_30_374" x="0" y="0" width="32" height="32" filterUnits="userSpaceOnUse" color-interpolation-filters="sRGB">
<feFlood flood-opacity="0" result="BackgroundImageFix"/>
<feColorMatrix in="SourceAlpha" type="matrix" values="0 0 0 0 0 0 0 0 0 0 0 0 0 0 0 0 0 0 127 0" result="hardAlpha"/>
<feOffset dy="4"/>
<feGaussianBlur stdDeviation="2"/>
<feComposite in2="hardAlpha" operator="out"/>
<feColorMatrix type="matrix" values="0 0 0 0 0 0 0 0 0 0 0 0 0 0 0 0 0 0 0.25 0"/>
<feBlend mode="normal" in2="BackgroundImageFix" result="effect1_dropShadow_30_374"/>
<feBlend mode="normal" in="SourceGraphic" in2="effect1_dropShadow_30_374" result="shape"/>
</filter>
</defs>
</svg>
